<?xml version="1.0" encoding="UTF-8" standalone="no"?>
<svg
   viewBox="0 0 400 400"
   width="100%"
   height="100%"
   version="1.1"
   id="svg6"
   sodipodi:docname="icon.svg"
   xml:space="preserve"
   inkscape:version="1.4.2 (f4327f4, 2025-05-13)"
   xmlns:inkscape="http://www.inkscape.org/namespaces/inkscape"
   xmlns:sodipodi="http://sodipodi.sourceforge.net/DTD/sodipodi-0.dtd"
   xmlns="http://www.w3.org/2000/svg"
   xmlns:svg="http://www.w3.org/2000/svg"><sodipodi:namedview
     id="namedview6"
     pagecolor="#505050"
     bordercolor="#eeeeee"
     borderopacity="1"
     inkscape:showpageshadow="0"
     inkscape:pageopacity="0"
     inkscape:pagecheckerboard="0"
     inkscape:deskcolor="#505050"
     inkscape:zoom="1"
     inkscape:cx="28.999999"
     inkscape:cy="130.5"
     inkscape:window-width="1920"
     inkscape:window-height="1009"
     inkscape:window-x="-8"
     inkscape:window-y="-8"
     inkscape:window-maximized="1"
     inkscape:current-layer="g6" /><defs
     id="defs4"><linearGradient
       id="bg"
       x1="20"
       y1="20"
       x2="380"
       y2="380"
       gradientUnits="userSpaceOnUse"
       gradientTransform="matrix(0.88888889,0,0,0.88888889,-177.77778,-192.77729)"><stop
         offset="0%"
         stop-color="#2C3138"
         id="stop1" /><stop
         offset="100%"
         stop-color="#191C20"
         id="stop2" /></linearGradient><radialGradient
       id="glow"
       cx="0"
       cy="0"
       r="18"
       fx="0"
       fy="0"
       gradientUnits="userSpaceOnUse"
       gradientTransform="matrix(0.88888889,0,0,0.88888889,-0.27924684,0.14625246)"><stop
         offset="0"
         stop-color="#FFFFFF"
         stop-opacity="0.5"
         id="stop3" /><stop
         offset="100%"
         stop-color="#FFFFFF"
         stop-opacity="0"
         id="stop4" /></radialGradient></defs><g
     transform="translate(208.50999,211.17051)"
     id="g6"><rect
       x="-159.99998"
       y="-174.99951"
       width="320"
       height="320"
       rx="71.111115"
       fill="url(#bg)"
       id="rect4"
       style="fill:url(#bg);stroke-width:0.888889" /><path
       d="M 0,0 V -71.257745 -120 M 0,0 103.92,60 M 0,0 -103.92,60 M 0,0 51.96,-30 M 0,0 -51.96,-30 M 0,0 V 60 M -51.96,-30 51.96,-90 m -103.92,0 103.92,60 m 0,0 V 90 M 0,60 103.92,0 M -51.96,-30 V 90 M 0,60 -103.92,0"
       fill="none"
       stroke="#929ea8"
       stroke-width="3"
       stroke-linecap="round"
       stroke-linejoin="round"
       id="path5"
       sodipodi:nodetypes="ccccccccccccccccccccccccc"
       style="fill:none;fill-opacity:1;stroke:#4d5a60;stroke-opacity:1"
       inkscape:label="sro" /><path
       d="m 0,-120 51.96,30 v 60 L 103.92,0 V 60 L 51.96,90 0,60 -51.96,90 -103.92,60 V 0 l 51.96,-30 v -60 z"
       fill="none"
       stroke="#929ea8"
       stroke-width="3"
       stroke-linejoin="round"
       id="path4"
       style="fill-rule:evenodd;stroke:#a8b1b2;stroke-opacity:1"
       inkscape:label="zewn" /><polygon
       points="51.96,-30 51.96,30 0,60 -51.96,30 -51.96,-30 0,-60 "
       fill="#49535f"
       id="polygon4"
       transform="matrix(0.97459069,0,0,0.97359481,0.08102636,-0.02343616)"
       style="fill:#4e5b61;fill-opacity:1;stroke-width:0.99990491;stroke-dasharray:none;stroke:none" /><circle
       cx="-0.27924708"
       cy="0.1462525"
       fill="url(#glow)"
       id="circle5"
       style="fill:url(#glow);stroke-width:3.96032;stroke-dasharray:none"
       r="16" /><circle
       cx="-0.0099900002"
       cy="0.32949001"
       fill="#ffffff"
       id="circle6"
       r="7.5"
       style="stroke-width:1.5" /></g></svg>
